<svg width="90" height="31" viewBox="0 0 90 31" fill="none" xmlns="http://www.w3.org/2000/svg">
<path d="M44.519 19.84C44.4096 19.5237 44.2654 19.2404 44.0863 18.9899C43.9106 18.7362 43.7001 18.5202 43.4548 18.3417C43.2127 18.1632 42.9375 18.027 42.6292 17.933C42.3209 17.8391 41.9827 17.7921 41.6147 17.7921C41.0113 17.7921 40.4626 17.9393 39.9685 18.2336C39.4745 18.528 39.0817 18.9617 38.7899 19.5347C38.4981 20.1077 38.3523 20.8107 38.3523 21.6436C38.3523 22.4766 38.4998 23.1795 38.7949 23.7526C39.09 24.3256 39.4895 24.7593 39.9934 25.0536C40.4974 25.348 41.0643 25.4952 41.6942 25.4952C42.2778 25.4952 42.7917 25.3777 43.2359 25.1429C43.6835 24.9049 44.0316 24.5699 44.2803 24.1377C44.5323 23.7025 44.6583 23.1905 44.6583 22.6018L45.0362 22.677H41.9727V21.6436H45.8518V22.677C45.8518 23.4692 45.6728 24.1581 45.3147 24.7436C44.96 25.3292 44.4693 25.7832 43.8427 26.1058C43.2193 26.4252 42.5032 26.5849 41.6942 26.5849C40.7924 26.5849 40 26.3844 39.3171 25.9836C38.6374 25.5828 38.1069 25.0129 37.7256 24.2739C37.3477 23.535 37.1587 22.6582 37.1587 21.6436C37.1587 20.8827 37.2665 20.1985 37.482 19.5911C37.7008 18.9805 38.0091 18.4607 38.407 18.0317C38.8048 17.6027 39.2756 17.2739 39.8194 17.0453C40.3631 16.8167 40.9615 16.7024 41.6147 16.7024C42.1518 16.7024 42.6524 16.7791 43.1166 16.9326C43.584 17.0829 44.0001 17.2974 44.3648 17.5761C44.7329 17.8516 45.0395 18.182 45.2849 18.5671C45.5302 18.9491 45.6993 19.3734 45.7921 19.84H44.519Z" fill="#1ADDA0"/>
<path d="M50.0529 26.6224C49.5689 26.6224 49.1296 26.5363 48.735 26.3641C48.3405 26.1887 48.0272 25.9367 47.7951 25.6079C47.563 25.276 47.447 24.8752 47.447 24.4055C47.447 23.9921 47.5332 23.6571 47.7056 23.4003C47.878 23.1404 48.1084 22.9369 48.3968 22.7897C48.6853 22.6425 49.0036 22.5329 49.3517 22.4609C49.7031 22.3858 50.0562 22.3263 50.411 22.2824C50.8751 22.2261 51.2514 22.1838 51.5399 22.1556C51.8317 22.1243 52.0438 22.0726 52.1765 22.0006C52.3124 21.9286 52.3804 21.8033 52.3804 21.6249V21.5873C52.3804 21.1238 52.2461 20.7637 51.9775 20.507C51.7123 20.2502 51.3095 20.1218 50.7691 20.1218C50.2087 20.1218 49.7694 20.2377 49.4512 20.4694C49.1329 20.7011 48.9091 20.9485 48.7798 21.2115L47.6658 20.8358C47.8647 20.3974 48.13 20.0561 48.4615 19.8118C48.7964 19.5644 49.1611 19.3922 49.5556 19.2952C49.9534 19.195 50.3447 19.1449 50.7293 19.1449C50.9746 19.1449 51.2564 19.173 51.5747 19.2294C51.8963 19.2826 52.2063 19.3938 52.5047 19.5629C52.8064 19.732 53.0567 19.9872 53.2556 20.3285C53.4546 20.6698 53.554 21.127 53.554 21.7V26.4533H52.3804V25.4764H52.3207C52.2411 25.6329 52.1085 25.8005 51.9228 25.9789C51.7372 26.1574 51.4902 26.3093 51.1818 26.4345C50.8735 26.5598 50.4972 26.6224 50.0529 26.6224ZM50.2319 25.6267C50.6961 25.6267 51.0873 25.5406 51.4056 25.3683C51.7272 25.1961 51.9692 24.9738 52.1317 24.7014C52.2975 24.4289 52.3804 24.1424 52.3804 23.8418V22.8273C52.3306 22.8836 52.2212 22.9353 52.0521 22.9823C51.8864 23.0261 51.6941 23.0653 51.4752 23.0997C51.2597 23.131 51.0492 23.1592 50.8437 23.1842C50.6414 23.2062 50.4773 23.225 50.3513 23.2406C50.0463 23.2782 49.7612 23.3392 49.4959 23.4238C49.234 23.5052 49.0218 23.6289 48.8593 23.7949C48.7002 23.9577 48.6206 24.18 48.6206 24.4618C48.6206 24.847 48.7715 25.1382 49.0732 25.3355C49.3782 25.5296 49.7645 25.6267 50.2319 25.6267Z" fill="#1ADDA0"/>
<path d="M55.6962 26.4533V19.2388H56.8301V20.3661H56.9296C57.0887 19.9809 57.3457 19.6819 57.7004 19.4689C58.0552 19.2529 58.4812 19.1449 58.9785 19.1449C59.4825 19.1449 59.9019 19.2529 60.2367 19.4689C60.5749 19.6819 60.8385 19.9809 61.0275 20.3661H61.1071C61.3027 19.9934 61.5961 19.6975 61.9873 19.4783C62.3785 19.256 62.8477 19.1449 63.3947 19.1449C64.0777 19.1449 64.6363 19.3468 65.0707 19.7508C65.505 20.1516 65.7222 20.7763 65.7222 21.6249V26.4533H64.5485V21.6249C64.5485 21.0925 64.3943 20.7121 64.086 20.4835C63.7776 20.2549 63.4146 20.1406 62.9969 20.1406C62.4598 20.1406 62.0437 20.294 61.7486 20.6009C61.4535 20.9046 61.306 21.2898 61.306 21.7564V26.4533H60.1124V21.5121C60.1124 21.1019 59.9715 20.7716 59.6897 20.5211C59.4079 20.2674 59.0448 20.1406 58.6006 20.1406C58.2955 20.1406 58.0104 20.2173 57.7452 20.3708C57.4833 20.5242 57.2711 20.7371 57.1086 21.0095C56.9495 21.2788 56.8699 21.5904 56.8699 21.9442V26.4533H55.6962Z" fill="#1ADDA0"/>
<path d="M71.0708 26.6036C70.3348 26.6036 69.6999 26.4502 69.1661 26.1433C68.6356 25.8333 68.2262 25.4012 67.9377 24.847C67.6526 24.2896 67.51 23.6414 67.51 22.9024C67.51 22.1634 67.6526 21.5121 67.9377 20.9485C68.2262 20.3817 68.6273 19.9402 69.1412 19.6239C69.6584 19.3045 70.2618 19.1449 70.9515 19.1449C71.3493 19.1449 71.7422 19.2075 72.1301 19.3327C72.518 19.458 72.8711 19.6615 73.1894 19.9433C73.5077 20.222 73.7613 20.5915 73.9503 21.0518C74.1393 21.5121 74.2338 22.0789 74.2338 22.7521V23.2218H68.3455V22.2636H73.0402C73.0402 21.8566 72.954 21.4933 72.7816 21.1739C72.6125 20.8545 72.3705 20.6025 72.0555 20.4177C71.7439 20.233 71.3758 20.1406 70.9515 20.1406C70.484 20.1406 70.0795 20.2502 69.738 20.4694C69.3998 20.6855 69.1396 20.9673 68.9572 21.3148C68.7749 21.6624 68.6837 22.0351 68.6837 22.4327V23.0715C68.6837 23.6164 68.7831 24.0782 68.9821 24.4571C69.1843 24.8329 69.4645 25.1194 69.8225 25.3167C70.1806 25.5108 70.5967 25.6079 71.0708 25.6079C71.3792 25.6079 71.6577 25.5672 71.9063 25.4858C72.1583 25.4012 72.3754 25.276 72.5578 25.11C72.7401 24.9409 72.8811 24.7311 72.9805 24.4806L74.1144 24.7812C73.995 25.1444 73.7945 25.4638 73.5126 25.7394C73.2308 26.0118 72.8827 26.2248 72.4683 26.3782C72.0538 26.5285 71.588 26.6036 71.0708 26.6036Z" fill="#1ADDA0"/>
<path d="M81.4299 20.8545L80.3756 21.1364C80.3093 20.9704 80.2115 20.8091 80.0822 20.6526C79.9562 20.4929 79.7838 20.3614 79.565 20.258C79.3462 20.1547 79.066 20.103 78.7245 20.103C78.2571 20.103 77.8675 20.2048 77.5558 20.4083C77.2475 20.6087 77.0933 20.8639 77.0933 21.1739C77.0933 21.4495 77.1994 21.6671 77.4116 21.8268C77.6238 21.9865 77.9554 22.1196 78.4062 22.2261L79.5401 22.4891C80.2231 22.6457 80.732 22.8852 81.0669 23.2077C81.4018 23.5271 81.5692 23.9389 81.5692 24.443C81.5692 24.8564 81.4432 25.2259 81.1912 25.5515C80.9426 25.8772 80.5945 26.1339 80.1469 26.3218C79.6993 26.5097 79.1788 26.6036 78.5853 26.6036C77.8062 26.6036 77.1613 26.4439 76.6507 26.1245C76.1401 25.8052 75.8169 25.3386 75.681 24.7249L76.7949 24.4618C76.901 24.8501 77.1016 25.1413 77.3967 25.3355C77.6951 25.5296 78.0847 25.6267 78.5654 25.6267C79.1124 25.6267 79.5468 25.5171 79.8684 25.2979C80.1933 25.0756 80.3557 24.8094 80.3557 24.4994C80.3557 24.2489 80.2629 24.0391 80.0772 23.87C79.8916 23.6978 79.6065 23.5694 79.2219 23.4848L77.9487 23.203C77.2492 23.0465 76.7353 22.8038 76.407 22.475C76.0821 22.1431 75.9197 21.7282 75.9197 21.2303C75.9197 20.8232 76.0407 20.4631 76.2827 20.15C76.5281 19.8369 76.8613 19.5911 77.2823 19.4126C77.7067 19.2341 78.1874 19.1449 78.7245 19.1449C79.4805 19.1449 80.0739 19.3014 80.5049 19.6145C80.9393 19.9277 81.2476 20.341 81.4299 20.8545Z" fill="#1ADDA0"/>
<path d="M39.5657 13.64H42.2115L43.9421 8.26667H44.0217L45.7524 13.64H48.3981L51.4019 4.02061H48.3185L46.926 9.95758H46.8465L45.1954 4.02061H42.7684L41.1174 9.93879H41.0378L39.6453 4.02061H36.5619L39.5657 13.64Z" fill="#1ADDA0"/>
<path d="M53.5764 13.7527C54.571 13.7527 55.322 13.4333 55.7845 12.6255H55.8442V13.64H58.4103V8.69879C58.4103 7.36485 57.0726 6.33152 54.8893 6.33152C52.6066 6.33152 51.4827 7.45879 51.3882 8.77394H53.9146C53.9792 8.32773 54.3274 8.11636 54.8495 8.11636C55.327 8.11636 55.6651 8.32303 55.6651 8.69879V8.71758C55.6651 9.13561 55.1778 9.26712 53.8947 9.35637C52.3182 9.4644 51.0898 10.0656 51.0898 11.6485C51.0898 13.0858 52.1143 13.7527 53.5764 13.7527ZM54.4716 12.1182C54.0041 12.1182 53.6759 11.9021 53.6759 11.4982C53.6759 11.1271 53.9544 10.8406 54.5909 10.7467C55.0286 10.6809 55.3966 10.5964 55.685 10.4836V11.0849C55.685 11.7424 55.0932 12.1182 54.4716 12.1182Z" fill="#1ADDA0"/>
<path d="M64.2775 6.42546H62.9645V4.69697H60.2193V6.42546H59.2446V8.30424H60.2193V11.5639C60.1994 13.0764 61.1891 13.842 63.0839 13.7433C63.7055 13.7105 64.168 13.5883 64.4167 13.5179L64.0188 11.6955C63.9144 11.7189 63.6459 11.7706 63.4817 11.7706C63.1237 11.7706 62.9645 11.6203 62.9645 11.3197V8.30424H64.2775V6.42546Z" fill="#1ADDA0"/>
<path d="M72.2979 8.77394C72.2283 7.24742 70.8856 6.33152 68.6775 6.33152C66.4942 6.33152 65.1465 7.17697 65.1565 8.68C65.1465 9.81667 65.9273 10.5447 67.4839 10.803L68.8366 11.0285C69.4334 11.1318 69.702 11.2821 69.7119 11.5545C69.702 11.8552 69.3389 12.0242 68.8366 12.0242C68.215 12.0242 67.7773 11.7706 67.7027 11.3103H64.9774C65.1266 12.7899 66.4793 13.7715 68.8167 13.7715C70.9303 13.7715 72.4869 12.7992 72.4969 11.2539C72.4869 10.1877 71.731 9.56773 70.1694 9.3L68.6178 9.03697C68.0359 8.93833 67.8718 8.74106 67.8818 8.5297C67.8718 8.22909 68.2647 8.06 68.7371 8.06C69.2792 8.06 69.7318 8.33243 69.7716 8.77394H72.2979Z" fill="#1ADDA0"/>
<path d="M77.2289 13.7715C79.7154 13.7715 81.1875 12.2685 81.1875 10.0515C81.1875 7.83455 79.7154 6.33152 77.2289 6.33152C74.7423 6.33152 73.2702 7.83455 73.2702 10.0515C73.2702 12.2685 74.7423 13.7715 77.2289 13.7715ZM77.2487 11.8552C76.5127 11.8552 76.0751 11.1647 76.0751 10.0327C76.0751 8.90076 76.5127 8.2103 77.2487 8.2103C77.945 8.2103 78.3826 8.90076 78.3826 10.0327C78.3826 11.1647 77.945 11.8552 77.2487 11.8552Z" fill="#1ADDA0"/>
<path d="M85.0467 9.58182C85.0517 8.86788 85.4794 8.43576 86.1607 8.43576C86.852 8.43576 87.2598 8.86788 87.2548 9.58182V13.64H90V9.03697C90.005 7.46818 88.9556 6.33152 87.3344 6.33152C86.2104 6.33152 85.3202 6.88576 84.987 7.79697H84.9074V6.42546H82.3015V13.64H85.0467V9.58182Z" fill="#1ADDA0"/>
<path d="M31.0562 18.9168C30.8094 17.8755 30.5221 16.8168 30.2031 15.7703C29.9431 14.9178 29.6602 14.0673 29.362 13.2435C29.1402 12.629 28.913 12.0381 28.6869 11.4871C28.5045 11.0429 28.3777 10.7567 28.3308 10.6541C27.7769 9.42814 27.0385 8.29143 26.134 7.27577C25.247 6.27961 24.2125 5.40964 23.059 4.69252C21.9055 3.97541 20.6503 3.42039 19.3264 3.04286C17.9773 2.65814 16.5736 2.46219 15.1568 2.46219C14.6794 2.46219 14.1977 2.48476 13.7247 2.52887C13.2517 2.57299 12.7776 2.6407 12.3156 2.72893C11.8524 2.81716 11.387 2.92898 10.9337 3.0603C10.4804 3.19264 10.027 3.34755 9.58573 3.52298C7.81718 4.22471 6.24635 5.23318 4.91476 6.51865C3.62904 7.76 2.62187 9.20654 1.92057 10.8182C1.21818 12.43 0.857699 14.1248 0.847868 15.8555C0.845683 16.1951 1.13735 16.4721 1.50001 16.4741C1.5011 16.4741 1.5022 16.4741 1.50329 16.4741C1.86377 16.4741 2.15653 16.2002 2.15871 15.8616C2.16745 14.2889 2.49516 12.749 3.1342 11.284C3.77214 9.81901 4.68754 8.50482 5.85529 7.37631C7.06345 6.20882 8.49117 5.29371 10.097 4.65662C10.4979 4.4976 10.9097 4.35603 11.3226 4.23599C11.7344 4.11596 12.1561 4.0144 12.5766 3.93437C12.9961 3.85435 13.4265 3.7928 13.8558 3.75279C14.2851 3.71278 14.7231 3.69226 15.1579 3.69226C16.4458 3.69226 17.7206 3.86974 18.9473 4.21958C20.1489 4.56223 21.2894 5.06596 22.3369 5.71741C23.3845 6.36887 24.324 7.15779 25.129 8.06265C25.9505 8.98597 26.6223 10.0191 27.1248 11.1332C27.1685 11.2296 27.2887 11.5005 27.4645 11.9283C27.6841 12.4638 27.9048 13.0393 28.1221 13.6375C28.4138 14.4428 28.6902 15.2738 28.9436 16.1068C29.2549 17.1297 29.5357 18.1638 29.7771 19.1815C29.8448 19.4687 30.1157 19.6637 30.4161 19.6637C30.4631 19.6637 30.5111 19.6585 30.5592 19.6493C30.912 19.5775 31.1349 19.2492 31.0562 18.9168Z" fill="#1ADDA0"/>
<path d="M4.44067 24.6568C4.32925 24.1664 4.20363 23.6729 4.06599 23.1908C3.93054 22.7168 3.78416 22.2551 3.63232 21.8181C3.47829 21.379 3.31881 20.9676 3.15823 20.5962C3.02169 20.2813 2.63936 20.1305 2.304 20.2577C1.96864 20.3859 1.80806 20.745 1.94352 21.0599C2.09317 21.4057 2.24283 21.7904 2.38702 22.2028C2.5323 22.6173 2.67103 23.0574 2.79993 23.5098C2.93211 23.9715 3.05227 24.4434 3.15823 24.9122C3.26747 25.3954 3.3625 25.8776 3.43897 26.3454C3.48922 26.6491 3.76777 26.8676 4.08565 26.8676C4.11842 26.8676 4.15229 26.8656 4.18615 26.8604C4.54335 26.8091 4.78914 26.4942 4.73343 26.1587C4.65478 25.6683 4.55537 25.1626 4.44067 24.6568Z" fill="#1ADDA0"/>
<path d="M1.25892 9.81491C2.01266 8.14164 3.09192 6.63868 4.46612 5.34706C5.84032 4.05646 7.44173 3.04286 9.22338 2.33498C11.0673 1.60248 13.0281 1.2311 15.0479 1.2311C17.0677 1.2311 19.0285 1.60248 20.8724 2.33498C22.6541 3.04286 24.2544 4.05646 25.6297 5.34706C25.8853 5.58712 26.3004 5.58712 26.5571 5.34706C26.8127 5.10699 26.8127 4.71715 26.5571 4.47606C25.0627 3.07261 23.3215 1.97078 21.3836 1.20032C19.377 0.40421 17.2457 0 15.0479 0C12.85 0 10.7188 0.40421 8.71216 1.20134C6.77429 1.97078 5.03306 3.07363 3.53869 4.47708C2.04433 5.88053 0.87113 7.51584 0.0518534 9.3358C-0.0890622 9.64871 0.0671466 10.0098 0.400319 10.1422C0.483339 10.175 0.570729 10.1914 0.654841 10.1914C0.910455 10.1914 1.15296 10.0498 1.25892 9.81491Z" fill="#1ADDA0"/>
<path d="M29.0758 22.9712C29.0506 22.8091 29.0244 22.647 28.9982 22.4849C28.9709 22.3228 28.9436 22.1597 28.9141 21.9966C28.8846 21.8335 28.8551 21.6693 28.8245 21.5052C28.5929 20.2813 28.3013 19.0276 27.9583 17.7791C27.6786 16.7644 27.364 15.7467 27.021 14.7536C26.7665 14.017 26.5022 13.3071 26.2345 12.6413C26.0237 12.1171 25.8729 11.7775 25.8183 11.6564C25.3705 10.6644 24.7729 9.74514 24.041 8.92236C23.3234 8.116 22.4866 7.41222 21.5537 6.83258C21.2522 6.64484 20.8448 6.72281 20.6449 7.00596C20.445 7.28911 20.528 7.67177 20.8295 7.85952C21.6564 8.3735 22.3992 8.99725 23.035 9.71231C23.6838 10.4417 24.2147 11.2573 24.6113 12.1376C24.6626 12.2525 24.8057 12.5736 25.0089 13.0773C25.27 13.7236 25.5267 14.4161 25.7746 15.1332C26.1089 16.1027 26.4169 17.0968 26.6889 18.0868C27.0243 19.3046 27.3083 20.5275 27.5344 21.7206C27.565 21.8807 27.5934 22.0397 27.6218 22.1987C27.6502 22.3577 27.6775 22.5167 27.7038 22.6747C27.73 22.8327 27.7551 22.9907 27.7791 23.1487C27.8032 23.3067 27.8272 23.4626 27.849 23.6196C27.8938 23.9284 28.1746 24.1531 28.4979 24.1531C28.5274 24.1531 28.5569 24.151 28.5864 24.1479C28.9447 24.1028 29.197 23.793 29.149 23.4554C29.1249 23.2933 29.1009 23.1323 29.0758 22.9712Z" fill="#1ADDA0"/>
<path d="M4.23094 16.4895C4.23203 16.4895 4.23313 16.4895 4.23422 16.4895C4.5947 16.4895 4.88745 16.2156 4.88964 15.877C4.89619 14.6336 5.15399 13.4169 5.65757 12.2597C6.16116 11.1014 6.8843 10.0622 7.80736 9.17063C8.76209 8.24731 9.8905 7.52404 11.1598 7.02032C11.4766 6.89413 11.8021 6.78231 12.1277 6.68793C12.4521 6.59354 12.7853 6.51352 13.1185 6.44991C13.4505 6.38631 13.7903 6.33809 14.1289 6.30628C14.4675 6.27448 14.8138 6.25807 15.1568 6.25807C15.5184 6.25807 15.8122 5.9821 15.8122 5.64252C15.8122 5.30294 15.5184 5.02697 15.1568 5.02697C14.7701 5.02697 14.3801 5.04544 13.9989 5.08135C13.6166 5.11725 13.2332 5.17163 12.8585 5.24344C12.4827 5.31525 12.1069 5.40553 11.7399 5.51223C11.3728 5.61892 11.0058 5.74511 10.6497 5.88669C9.2176 6.45504 7.94499 7.27167 6.86683 8.31297C5.82689 9.31836 5.01089 10.4889 4.44395 11.7939C3.87592 13.0978 3.58535 14.4705 3.5788 15.8719C3.5777 16.2115 3.86937 16.4885 4.23094 16.4895Z" fill="#1ADDA0"/>
<path d="M6.96077 23.4903C6.77507 22.7527 6.56206 22.0243 6.3272 21.3236C6.11746 20.6957 5.89462 20.1058 5.6827 19.6185C5.54615 19.3036 5.16382 19.1528 4.82847 19.281C4.49311 19.4092 4.33253 19.7683 4.46908 20.0833C4.66789 20.5408 4.87762 21.0969 5.07753 21.6929C5.30256 22.3649 5.50683 23.0656 5.68598 23.7745C5.88697 24.5696 6.04864 25.3534 6.1688 26.1064C6.30207 26.9435 6.38072 27.7386 6.40476 28.468C6.41568 28.8015 6.70625 29.0651 7.05908 29.0651C7.06564 29.0651 7.07219 29.0651 7.07875 29.0651C7.44032 29.0549 7.72543 28.7707 7.7145 28.4311C7.68938 27.6535 7.60527 26.8102 7.46545 25.9248C7.33873 25.1379 7.16941 24.3193 6.96077 23.4903Z" fill="#1ADDA0"/>
<path d="M26.6256 25.2764C26.5874 24.9163 26.5437 24.5491 26.4956 24.1838C26.4475 23.8207 26.3918 23.4472 26.3317 23.0759C26.2717 22.7065 26.2061 22.329 26.1351 21.9535C25.9155 20.7932 25.6403 19.6072 25.3158 18.4274C25.2252 18.0981 24.868 17.9001 24.5173 17.9853C24.1667 18.0704 23.9558 18.4059 24.0465 18.7352C24.3622 19.8842 24.6309 21.0394 24.8439 22.1689C24.9128 22.5342 24.9772 22.9014 25.0351 23.2605C25.093 23.6216 25.1465 23.9838 25.1946 24.3367C25.2416 24.6906 25.2842 25.0477 25.3213 25.3965C25.3573 25.7442 25.389 26.0951 25.4152 26.4408C25.4393 26.765 25.7277 27.0133 26.0685 27.0133C26.0838 27.0133 26.1002 27.0133 26.1154 27.0123C26.477 26.9887 26.7479 26.6942 26.7228 26.3547C26.6966 25.9977 26.6638 25.6355 26.6256 25.2764Z" fill="#1ADDA0"/>
<path d="M24.4343 15.5723C24.1951 14.8778 23.946 14.2089 23.6948 13.5841C23.497 13.0917 23.355 12.7726 23.3037 12.6577C22.9618 11.8996 22.5041 11.1968 21.9459 10.569C21.3975 9.95238 20.7574 9.4148 20.0452 8.97161C19.3318 8.52841 18.5552 8.18473 17.737 7.95185C16.9024 7.71384 16.0351 7.59278 15.159 7.59278C14.8641 7.59278 14.5669 7.60714 14.2742 7.63382C13.9825 7.66152 13.6887 7.70255 13.4025 7.75795C13.1163 7.81233 12.829 7.88209 12.5482 7.96313C12.2686 8.04418 11.9879 8.14062 11.7148 8.24936C10.618 8.68332 9.64363 9.30811 8.81998 10.1052C8.56765 10.3494 8.57311 10.7382 8.83309 10.9752C9.09308 11.2122 9.50708 11.206 9.75942 10.9629C10.4607 10.2848 11.2898 9.75335 12.2238 9.383C12.4565 9.29066 12.6968 9.20859 12.9349 9.13883C13.1742 9.06907 13.4189 9.01059 13.6625 8.96442C13.9061 8.91826 14.1562 8.88235 14.4042 8.85978C14.6532 8.83619 14.9067 8.8249 15.159 8.8249C15.9062 8.8249 16.6457 8.92749 17.3558 9.13062C18.0527 9.32965 18.7136 9.62204 19.3209 9.99957C19.9283 10.3771 20.4723 10.8347 20.9398 11.3599C21.4161 11.8955 21.805 12.4946 22.0966 13.1399C22.1458 13.2476 22.2791 13.5492 22.4691 14.0211C22.7127 14.6275 22.9552 15.2779 23.1879 15.9529C23.2775 16.2135 23.5353 16.3797 23.8117 16.3797C23.8783 16.3797 23.946 16.3705 24.0137 16.35C24.3567 16.2422 24.5457 15.8955 24.4343 15.5723Z" fill="#1ADDA0"/>
<path d="M9.71571 23.2995C9.49833 22.3905 9.23944 21.4826 8.94559 20.5993C8.63864 19.676 8.37428 19.0225 8.20387 18.6326C7.81281 17.7565 7.61618 16.8332 7.61946 15.8883C7.62273 14.9752 7.81171 14.0817 8.18093 13.2312C8.31748 12.9162 8.1569 12.5572 7.82155 12.4289C7.48619 12.3007 7.10386 12.4515 6.96731 12.7665C6.53364 13.7636 6.31189 14.8132 6.30861 15.8842C6.30424 16.9942 6.53583 18.0797 6.99244 19.1035C7.21528 19.6165 7.46434 20.2782 7.69374 20.9666C7.97666 21.8171 8.22681 22.6922 8.43655 23.5693C8.68452 24.6055 8.86913 25.617 8.98601 26.5752C9.12037 27.675 9.16407 28.7091 9.11709 29.6479C9.10071 29.9874 9.37926 30.2757 9.74084 30.2911C9.75176 30.2911 9.76159 30.2921 9.77252 30.2921C10.1199 30.2921 10.4105 30.0356 10.4268 29.7053C10.4771 28.7009 10.4301 27.6012 10.2881 26.4357C10.1658 25.4334 9.97351 24.3788 9.71571 23.2995Z" fill="#1ADDA0"/>
<path d="M23.5702 26.2541C23.5167 25.7607 23.4523 25.2559 23.3769 24.7542C23.3266 24.4177 22.9956 24.1818 22.6374 24.23C22.2791 24.2772 22.0289 24.588 22.0792 24.9245C22.1523 25.4108 22.2146 25.9002 22.2659 26.3772C22.3173 26.8522 22.3577 27.3303 22.3883 27.7951C22.4178 28.2588 22.4374 28.7245 22.4462 29.178C22.4527 29.5145 22.7444 29.7822 23.1016 29.7822C23.106 29.7822 23.1093 29.7822 23.1136 29.7822C23.4752 29.7761 23.7636 29.496 23.757 29.1564C23.7483 28.6855 23.7275 28.2023 23.6969 27.7212C23.6664 27.24 23.6238 26.7466 23.5702 26.2541Z" fill="#1ADDA0"/>
<path d="M12.131 21.7801C12.0414 21.4508 11.6842 21.2518 11.3335 21.3359C10.9829 21.42 10.771 21.7555 10.8605 22.0848C11.2276 23.4318 11.4985 24.7481 11.6656 25.9977C11.8732 27.5468 11.9223 28.9964 11.8109 30.3044C11.7825 30.643 12.0512 30.9405 12.4117 30.9672C12.4292 30.9682 12.4466 30.9692 12.4652 30.9692C12.8039 30.9692 13.09 30.7251 13.1174 30.4029C13.2364 29.0108 13.1851 27.476 12.9666 25.8438C12.7929 24.5439 12.5111 23.1764 12.131 21.7801Z" fill="#1ADDA0"/>
<path d="M19.0402 11.6226C17.7228 10.7936 16.0198 10.4951 14.2458 10.7813C11.0593 11.2953 8.9183 13.4548 8.79159 16.2843C8.77411 16.6742 8.94452 17.0466 9.25803 17.3061C9.57481 17.5677 9.99428 17.6796 10.4094 17.6118C11.0593 17.5072 11.5422 16.985 11.5575 16.3705C11.6012 14.6613 12.8202 13.3646 14.6631 13.067C15.6593 12.906 16.6261 13.0712 17.3842 13.5318C18.1663 14.0068 18.6699 14.7475 18.8392 15.6739C19.0784 16.985 18.577 18.0981 17.2137 19.2841C15.5435 20.7111 14.6598 21.9248 14.7756 24.2464C14.7832 24.4044 14.8182 24.7142 14.8772 25.1697C14.9613 25.814 15.5512 26.2911 16.2273 26.2911C16.2765 26.2911 16.3267 26.288 16.377 26.2829C16.7462 26.2439 17.0739 26.0715 17.3011 25.7966C17.5283 25.5206 17.6245 25.179 17.5731 24.8343C17.4923 24.2977 17.4781 24.1079 17.4781 24.0433C17.4628 22.7589 17.9085 21.9299 19.2445 20.7573C21.1932 19.0574 21.8956 17.382 21.5188 15.323C21.2337 13.7626 20.3532 12.4484 19.0402 11.6226Z" fill="#1ADDA0"/>
<path d="M18.3531 27.7284C17.9369 27.4514 17.4279 27.3447 16.921 27.4267C15.8789 27.595 15.1776 28.5276 15.3567 29.5052C15.443 29.9761 15.7216 30.3896 16.141 30.6676C16.4698 30.8861 16.8533 31 17.2454 31C17.3536 31 17.4617 30.9918 17.5699 30.9744C18.0756 30.8923 18.5169 30.6307 18.813 30.2367C19.1068 29.8438 19.2215 29.3678 19.1352 28.8959C19.0467 28.4188 18.7693 28.0043 18.3531 27.7284Z" fill="#1ADDA0"/>
</svg>
